<svg width="172" height="63" viewBox="0 0 172 63" fill="none" xmlns="http://www.w3.org/2000/svg">
<path d="M3.28693 50V12.1818H11.2827V28.8565H11.7812L25.3906 12.1818H34.9744L20.9403 29.1151L35.1406 50H25.5753L15.2159 34.4517L11.2827 39.2528V50H3.28693ZM47.0788 50.5355C45.2692 50.5355 43.6565 50.2216 42.2408 49.5938C40.825 48.9536 39.7048 48.0118 38.88 46.7685C38.0675 45.5128 37.6612 43.9493 37.6612 42.0781C37.6612 40.5024 37.9505 39.179 38.5291 38.108C39.1077 37.0369 39.8956 36.1752 40.8928 35.5227C41.8899 34.8703 43.0225 34.3778 44.2905 34.0455C45.5708 33.7131 46.9126 33.4792 48.3161 33.3438C49.9657 33.1714 51.2952 33.0114 52.3047 32.8636C53.3142 32.7036 54.0466 32.4697 54.5021 32.1619C54.9576 31.8542 55.1854 31.3987 55.1854 30.7955V30.6847C55.1854 29.5152 54.8161 28.6103 54.0774 27.9702C53.3511 27.33 52.317 27.0099 50.9751 27.0099C49.5594 27.0099 48.433 27.3239 47.5959 27.9517C46.7588 28.5672 46.2048 29.3428 45.9339 30.2784L38.6584 29.6875C39.0277 27.964 39.754 26.4744 40.8374 25.2188C41.9207 23.9508 43.3179 22.9782 45.0291 22.3011C46.7526 21.6117 48.7469 21.267 51.0121 21.267C52.5878 21.267 54.0959 21.4517 55.5362 21.821C56.9889 22.1903 58.2753 22.7628 59.3956 23.5384C60.5282 24.3139 61.4207 25.3111 62.0732 26.5298C62.7256 27.7363 63.0518 29.1828 63.0518 30.8693V50H55.5916V46.0668H55.37C54.9145 46.9531 54.3052 47.7348 53.5419 48.4119C52.7786 49.0767 51.8615 49.5999 50.7905 49.9815C49.7195 50.3509 48.4822 50.5355 47.0788 50.5355ZM49.3317 45.1065C50.4889 45.1065 51.5107 44.8788 52.397 44.4233C53.2834 43.9555 53.9789 43.3277 54.4837 42.5398C54.9884 41.7519 55.2408 40.8594 55.2408 39.8622V36.8523C54.9946 37.0123 54.656 37.16 54.2251 37.2955C53.8066 37.4186 53.3326 37.5355 52.8033 37.6463C52.2739 37.7448 51.7446 37.8371 51.2152 37.9233C50.6858 37.9972 50.2057 38.0649 49.7749 38.1264C48.8516 38.2618 48.0452 38.4773 47.3558 38.7727C46.6664 39.0682 46.1309 39.4683 45.7493 39.973C45.3677 40.4654 45.1768 41.081 45.1768 41.8196C45.1768 42.8906 45.5646 43.7093 46.3402 44.2756C47.1281 44.8295 48.1252 45.1065 49.3317 45.1065ZM92.7543 29.7244L85.5526 30.1676C85.4295 29.5521 85.1648 28.9981 84.7585 28.5057C84.3523 28.0009 83.8168 27.6009 83.152 27.3054C82.4995 26.9976 81.7178 26.8438 80.8068 26.8438C79.5881 26.8438 78.5601 27.1023 77.723 27.6193C76.8859 28.1241 76.4673 28.8011 76.4673 29.6506C76.4673 30.3277 76.7382 30.9001 77.2798 31.3679C77.8215 31.8357 78.7509 32.2112 80.0682 32.4943L85.2017 33.5284C87.9593 34.0947 90.0152 35.0057 91.3693 36.2614C92.7235 37.517 93.4006 39.1667 93.4006 41.2102C93.4006 43.0691 92.8527 44.7003 91.7571 46.1037C90.6738 47.5071 89.1842 48.6027 87.2884 49.3906C85.4048 50.1662 83.232 50.554 80.7699 50.554C77.0152 50.554 74.0237 49.7723 71.7955 48.2088C69.5795 46.633 68.2808 44.491 67.8991 41.7827L75.6364 41.3764C75.8703 42.5213 76.4366 43.3954 77.3352 43.9986C78.2339 44.5895 79.3849 44.8849 80.7884 44.8849C82.1671 44.8849 83.2751 44.6203 84.1122 44.0909C84.9616 43.5492 85.3925 42.8537 85.4048 42.0043C85.3925 41.2902 85.0909 40.7055 84.5 40.25C83.9091 39.7822 82.9981 39.4252 81.767 39.179L76.8551 38.2003C74.0852 37.6463 72.0232 36.6861 70.669 35.3196C69.3272 33.9531 68.6562 32.2112 68.6562 30.0938C68.6562 28.2718 69.1487 26.7022 70.1335 25.3849C71.1307 24.0677 72.5279 23.0521 74.3253 22.3381C76.1349 21.6241 78.2524 21.267 80.6776 21.267C84.2599 21.267 87.0791 22.0241 89.1349 23.5384C91.2031 25.0526 92.4096 27.1146 92.7543 29.7244ZM106.221 33.6023V50H98.354V12.1818H105.999V26.6406H106.331C106.971 24.9664 108.006 23.6553 109.434 22.7074C110.862 21.7472 112.653 21.267 114.807 21.267C116.777 21.267 118.494 21.6979 119.959 22.5597C121.436 23.4091 122.581 24.634 123.394 26.2344C124.219 27.8224 124.625 29.7244 124.613 31.9403V50H116.746V33.3438C116.758 31.5956 116.315 30.2353 115.417 29.2628C114.53 28.2902 113.287 27.804 111.686 27.804C110.615 27.804 109.667 28.0317 108.843 28.4872C108.03 28.9427 107.39 29.6075 106.922 30.4815C106.467 31.3433 106.233 32.3835 106.221 33.6023Z" fill="white"/>
<rect x="133" y="4" width="20" height="20" rx="5" fill="#94D1FF"/>
<circle cx="143" cy="14" r="5" fill="#0092FF"/>
<rect x="139" y="20" width="6" height="30" rx="1" fill="#0092FF"/>
<rect x="155" y="15" width="6" height="35" rx="2" fill="#0092FF"/>
<rect x="142" y="26" width="6" height="30" rx="2" transform="rotate(-90 142 26)" fill="#0092FF"/>
</svg>
