<svg width="117" height="44" viewBox="0 0 117 44" fill="none" xmlns="http://www.w3.org/2000/svg">
<path d="M2.02273 36V12.7273H6.94318V22.9886H7.25L15.625 12.7273H21.5227L12.8864 23.1477L21.625 36H15.7386L9.36364 26.4318L6.94318 29.3864V36H2.02273ZM28.9716 36.3295C27.858 36.3295 26.8655 36.1364 25.9943 35.75C25.1231 35.3561 24.4337 34.7765 23.9261 34.0114C23.4261 33.2386 23.1761 32.2765 23.1761 31.125C23.1761 30.1553 23.3542 29.3409 23.7102 28.6818C24.0663 28.0227 24.5511 27.4924 25.1648 27.0909C25.7784 26.6894 26.4754 26.3864 27.2557 26.1818C28.0436 25.9773 28.8693 25.8333 29.733 25.75C30.7481 25.6439 31.5663 25.5455 32.1875 25.4545C32.8087 25.3561 33.2595 25.2121 33.5398 25.0227C33.8201 24.8333 33.9602 24.553 33.9602 24.1818V24.1136C33.9602 23.3939 33.733 22.8371 33.2784 22.4432C32.8314 22.0492 32.1951 21.8523 31.3693 21.8523C30.4981 21.8523 29.8049 22.0455 29.2898 22.4318C28.7746 22.8106 28.4337 23.2879 28.267 23.8636L23.7898 23.5C24.017 22.4394 24.464 21.5227 25.1307 20.75C25.7973 19.9697 26.6572 19.3712 27.7102 18.9545C28.7708 18.5303 29.9981 18.3182 31.392 18.3182C32.3617 18.3182 33.2898 18.4318 34.1761 18.6591C35.0701 18.8864 35.8617 19.2386 36.5511 19.7159C37.2481 20.1932 37.7973 20.8068 38.1989 21.5568C38.6004 22.2992 38.8011 23.1894 38.8011 24.2273V36H34.2102V33.5795H34.0739C33.7936 34.125 33.4186 34.6061 32.9489 35.0227C32.4792 35.4318 31.9148 35.7538 31.2557 35.9886C30.5966 36.2159 29.8352 36.3295 28.9716 36.3295ZM30.358 32.9886C31.0701 32.9886 31.6989 32.8485 32.2443 32.5682C32.7898 32.2803 33.2178 31.8939 33.5284 31.4091C33.839 30.9242 33.9943 30.375 33.9943 29.7614V27.9091C33.8428 28.0076 33.6345 28.0985 33.3693 28.1818C33.1117 28.2576 32.8201 28.3295 32.4943 28.3977C32.1686 28.4583 31.8428 28.5152 31.517 28.5682C31.1913 28.6136 30.8958 28.6553 30.6307 28.6932C30.0625 28.7765 29.5663 28.9091 29.142 29.0909C28.7178 29.2727 28.3883 29.5189 28.1534 29.8295C27.9186 30.1326 27.8011 30.5114 27.8011 30.9659C27.8011 31.625 28.0398 32.1288 28.517 32.4773C29.0019 32.8182 29.6155 32.9886 30.358 32.9886ZM57.0795 23.5227L52.6477 23.7955C52.572 23.4167 52.4091 23.0758 52.1591 22.7727C51.9091 22.4621 51.5795 22.2159 51.1705 22.0341C50.7689 21.8447 50.2879 21.75 49.7273 21.75C48.9773 21.75 48.3447 21.9091 47.8295 22.2273C47.3144 22.5379 47.0568 22.9545 47.0568 23.4773C47.0568 23.8939 47.2235 24.2462 47.5568 24.5341C47.8902 24.822 48.4621 25.053 49.2727 25.2273L52.4318 25.8636C54.1288 26.2121 55.3939 26.7727 56.2273 27.5455C57.0606 28.3182 57.4773 29.3333 57.4773 30.5909C57.4773 31.7348 57.1402 32.7386 56.4659 33.6023C55.7992 34.4659 54.8826 35.1402 53.7159 35.625C52.5568 36.1023 51.2197 36.3409 49.7045 36.3409C47.3939 36.3409 45.553 35.8598 44.1818 34.8977C42.8182 33.928 42.0189 32.6098 41.7841 30.9432L46.5455 30.6932C46.6894 31.3977 47.0379 31.9356 47.5909 32.3068C48.1439 32.6705 48.8523 32.8523 49.7159 32.8523C50.5644 32.8523 51.2462 32.6894 51.7614 32.3636C52.2841 32.0303 52.5492 31.6023 52.5568 31.0795C52.5492 30.6402 52.3636 30.2803 52 30C51.6364 29.7121 51.0758 29.4924 50.3182 29.3409L47.2955 28.7386C45.5909 28.3977 44.322 27.8068 43.4886 26.9659C42.6629 26.125 42.25 25.053 42.25 23.75C42.25 22.6288 42.553 21.6629 43.1591 20.8523C43.7727 20.0417 44.6326 19.4167 45.7386 18.9773C46.8523 18.5379 48.1553 18.3182 49.6477 18.3182C51.8523 18.3182 53.5871 18.7841 54.8523 19.7159C56.125 20.6477 56.8674 21.9167 57.0795 23.5227ZM65.3665 25.9091V36H60.5256V12.7273H65.2301V21.625H65.4347C65.8286 20.5947 66.465 19.7879 67.3438 19.2045C68.2225 18.6136 69.3248 18.3182 70.6506 18.3182C71.8627 18.3182 72.9195 18.5833 73.821 19.1136C74.7301 19.6364 75.4347 20.3902 75.9347 21.375C76.4422 22.3523 76.6922 23.5227 76.6847 24.8864V36H71.8438V25.75C71.8513 24.6742 71.5786 23.8371 71.0256 23.2386C70.4801 22.6402 69.715 22.3409 68.7301 22.3409C68.071 22.3409 67.4877 22.4811 66.9801 22.7614C66.4801 23.0417 66.0862 23.4508 65.7983 23.9886C65.518 24.5189 65.3741 25.1591 65.3665 25.9091Z" fill="#1D2C38"/>
<rect x="78" width="20" height="20" rx="5" fill="#94D1FF"/>
<circle cx="88" cy="10" r="5" fill="#0092FF"/>
<rect x="84" y="16" width="6" height="20" rx="1" fill="#0092FF"/>
<rect x="100" y="11" width="6" height="25" rx="2" fill="#0092FF"/>
<rect x="87" y="22" width="6" height="30" rx="2" transform="rotate(-90 87 22)" fill="#0092FF"/>
</svg>
