<svg width="27" height="22" viewBox="0 0 27 22" fill="none" xmlns="http://www.w3.org/2000/svg">
<path d="M0 1.03846C0 0.46523 0.465231 0 1.03846 0H19.0385C19.6117 0 20.0769 0.46523 20.0769 1.03846C20.0769 1.61169 19.6117 2.07692 19.0385 2.07692H1.03846C0.465231 2.07692 0 1.61169 0 1.03846ZM25.9615 9.6923H1.03846C0.465231 9.6923 0 10.1575 0 10.7308C0 11.304 0.465231 11.7692 1.03846 11.7692H25.9615C26.5348 11.7692 27 11.304 27 10.7308C27 10.1575 26.5348 9.6923 25.9615 9.6923ZM13.5 19.3846H1.03846C0.465231 19.3846 0 19.8498 0 20.4231C0 20.9963 0.465231 21.4615 1.03846 21.4615H13.5C14.0732 21.4615 14.5385 20.9963 14.5385 20.4231C14.5385 19.8498 14.0732 19.3846 13.5 19.3846Z" fill="white"/>
</svg>
