<svg width="27" height="27" viewBox="0 0 27 27" fill="none" xmlns="http://www.w3.org/2000/svg">
<path d="M14.605 1.12865C14.605 0.829791 14.7238 0.543172 14.9351 0.331847C15.1464 0.120521 15.433 0.00179954 15.7319 0.00179954C18.7195 0.00508048 21.5837 1.19335 23.6963 3.30589C25.8088 5.41844 26.9971 8.28272 27.0004 11.2703C27.0004 11.5692 26.8817 11.8558 26.6703 12.0671C26.459 12.2784 26.1724 12.3972 25.8735 12.3972C25.5747 12.3972 25.2881 12.2784 25.0767 12.0671C24.8654 11.8558 24.7467 11.5692 24.7467 11.2703C24.744 8.88026 23.7934 6.58886 22.1033 4.89884C20.4133 3.20882 18.1219 2.25819 15.7319 2.2555C15.433 2.2555 15.1464 2.13678 14.9351 1.92545C14.7238 1.71413 14.605 1.42751 14.605 1.12865ZM15.7319 6.76291C16.9273 6.76291 18.0738 7.23779 18.9191 8.08309C19.7644 8.9284 20.2393 10.0749 20.2393 11.2703C20.2393 11.5692 20.358 11.8558 20.5693 12.0671C20.7807 12.2784 21.0673 12.3972 21.3661 12.3972C21.665 12.3972 21.9516 12.2784 22.1629 12.0671C22.3743 11.8558 22.493 11.5692 22.493 11.2703C22.4912 9.4777 21.7783 7.75903 20.5107 6.49146C19.2432 5.2239 17.5245 4.51099 15.7319 4.5092C15.433 4.5092 15.1464 4.62792 14.9351 4.83925C14.7238 5.05058 14.605 5.33719 14.605 5.63605C14.605 5.93491 14.7238 6.22153 14.9351 6.43286C15.1464 6.64418 15.433 6.76291 15.7319 6.76291ZM25.9783 18.8642C26.6314 19.519 26.9981 20.406 26.9981 21.3308C26.9981 22.2556 26.6314 23.1427 25.9783 23.7975L24.9529 24.9796C15.724 33.8152 -6.73415 11.3627 1.96514 2.1045L3.26102 0.977652C3.91659 0.342872 4.79571 -0.00828681 5.70821 0.00014853C6.6207 0.00858387 7.49319 0.375935 8.1369 1.02273C8.17184 1.05766 10.2599 3.76999 10.2599 3.76999C10.8795 4.42089 11.2244 5.28552 11.2229 6.18416C11.2214 7.08279 10.8737 7.94629 10.252 8.59517L8.94711 10.2359C9.66925 11.9905 10.731 13.5851 12.0713 14.9282C13.4116 16.2712 15.0041 17.3362 16.7573 18.0618L18.4081 16.7491C19.0571 16.1278 19.9205 15.7805 20.8188 15.7793C21.7172 15.778 22.5815 16.1229 23.2322 16.7423C23.2322 16.7423 25.9434 18.8292 25.9783 18.8642ZM24.4278 20.5026C24.4278 20.5026 21.7312 18.4281 21.6963 18.3931C21.4642 18.163 21.1505 18.0338 20.8236 18.0338C20.4966 18.0338 20.183 18.163 19.9508 18.3931C19.9204 18.4247 17.6475 20.2355 17.6475 20.2355C17.4944 20.3575 17.3121 20.4374 17.1186 20.4674C16.9252 20.4974 16.7273 20.4766 16.5443 20.4068C14.2731 19.5612 12.2102 18.2373 10.4952 16.5249C8.78026 14.8125 7.45336 12.7515 6.60439 10.4815C6.52911 10.2961 6.50457 10.094 6.53329 9.89593C6.562 9.69789 6.64294 9.51106 6.76778 9.35466C6.76778 9.35466 8.57863 7.08068 8.60905 7.05138C8.83923 6.81923 8.96838 6.50555 8.96838 6.17863C8.96838 5.85172 8.83923 5.53803 8.60905 5.30589C8.57412 5.27208 6.49959 2.57327 6.49959 2.57327C6.26397 2.362 5.95645 2.24885 5.64008 2.25702C5.32371 2.26519 5.02245 2.39406 4.79804 2.61722L3.50217 3.74407C-2.85553 11.3886 16.6063 29.7709 23.3054 23.4403L24.332 22.2571C24.5726 22.0343 24.7171 21.7266 24.7349 21.3992C24.7528 21.0718 24.6427 20.7503 24.4278 20.5026Z" fill="#0092FF"/>
</svg>
